<svg width="350" height="213" viewBox="0 0 350 213" xmlns="http://www.w3.org/2000/svg"><title>bg-map</title><path d="M169.19 146.483c2.65 2.342 3.443 6.099 2.742 8.882-.7 2.768-2.513 6.784.061 11.727 2.56 4.943 1.965 7.56 3.535 10.738 1.553 3.194.121 6.388 4.509 4.122 4.387-2.266 5.088.44 10.039-5.324 4.951-5.78 1.432-3.209 2.163-4.897.732-1.688 4.555 1.004 3.276-4.35-1.28-5.354 7.556-7.91 6.535-13.552-1.02-5.628-.822-1.156-1.02-4.137-.199-2.982-1.89-.76 2.544-6.008 4.433-5.248 9.551-8.35 10.542-13.507.99-5.156-5.195-.152-7.222.122-2.01.289-3.839-5.78-6.078-6.16-2.24-.38.274-1.156-1.143-2.692-1.416-1.537-.746-3.118-2.148-4.792-1.401-1.688-4.555-6.144-5.058-8.289-.487-2.144 1.128 2.753 2.468 1.02 1.326-1.735.336 1.55 3.032 4.395 2.681 2.844.427 3.361 3.032 4.852 2.59 1.49 3.945 9.643 6.032 8.715 2.088-.928 10.482-4.76 10.863-4.806.38-.046 1.63-1.248 1.889-1.765.259-.517.761-.09 1.386-.593.64-.487-1.02-1.566.503-1.901 1.523-.35.716-3.027.076-3.772-.64-.745-2.864-.685-2.895-2.723-.015-1.536-4.555 4.609-6.885.122-1.6-3.088-3.443-4.563-1.89-5.08.077-.03.488-.882 1.341-.213.29.228 3.672 5.673 6.064 4.259 2.391-1.414 1.096.867 4.95 1.46 3.84.593 7.252-.106 8.394.67 1.158.775 1.158 1.596 1.676 1.383.533-.213 1.478.928 2.514.76 1.02-.151-2.62 2.024.32 2.83 2.925.79 2.392-3.483 2.24-.943-.153 2.555 3.793 16.594 6.596 15.727 2.818-.867 2.452-8.655 3.32-8.943.884-.29 5.881-4.548 5.972-6.176.092-1.627 4.19.396 3.824-2.205-.38-2.586 1.66 2.205 2.849 2.89 1.203.684.35.578.625 1.034.274.456 1.995.73 1.447 3.21-.533 2.479 2.544.562 2.88-.715.319-1.278 2.71 6.433 2.452 9.019-.274 2.586 1.706 2.205 2.209 4.441.518 2.236 3.565 6.403 4.57 5.217 1.02-1.186.29-2.358-.579-1.795-.868.563-.426-2.418-2.193-3.772-1.768-1.353-3.794-1.095-3.322-4.867.457-3.787 1.25-3.057 1.707-2.707.457.365 1.462.243 2.056.562.61.32-.518 1.856 1.25 1.963 1.767.106.7 2.905 2.955.958.518-.441 4.905-5.522.03-9.065-3.443-2.48 1.524-6.784 1.996-6.13.488.654.38 1.597 2.94.502s.564-1.186 2.3-.852c1.722.335 4.54-2.22 4.89-3.33.351-1.096.595-.943.488-2.586-.106-1.643 2.103-2.373 1.66-3.285-.456-.913-1.248-1.689-.273-2.495.99-.806-1.265-3.133-2.377-4.837-1.112-1.703-1.996-1.673-.472-3.163 1.523-1.49 3.382-1.75.883-1.871-2.513-.122-1.234-.472-2.01.715-.777 1.186-1.082-.776-1.158-.958-.076-.198-2.362-1.096-1.478-1.917.884-.806 1.097.03 1.34-1.004.23-1.05 2.377-2.677 3.017-1.582.625 1.096-.411-.03-.579 1.126-.168 1.156-.03 1.582 1.234.608 1.28-.973 1.767-.365 2.544-.03.792.335.411 2.312.899 2.54.457.228 2.209.654 1.92 1.034-.275.38.335.654.502 1.506.168.852-.563 2.099 2.346 1.658 2.895-.441-2.711-6.054-3-6.799-.306-.745-1.159-1.034.38-1.156 1.523-.122.823-1.612.442-.745-.381.882-.686-.244-.26-.654.427-.41 1.494.334 1.022-1.065-.458-1.4.35-3.164 1.553-3.422 1.22-.244 1.585 2.966 4.327-4s.366-9.506.198-13.035c-.152-3.514-3.595-5.567-4.509-3.803-.914 1.765-5.53 2.312-1.843-6.327 3.686-8.64 10.694-7.285 10.618-7.012-.076.274-.823 1.263.457.64 1.28-.625.396-.685.7-.746.306-.061 1.372.243 1.341-.563-.045-.79-2.01.183-1.188-2.175.808-2.342.67-4.107 2.179-4.593 1.493-.502-.092 1.11.685.35.777-.746-.579-.153.792 1.231 1.371 1.4 1.173-.745 1.844-1.87.67-1.11.944.578.076-1.263-.868-1.84 1.462-2.114 1.447-1.506-.015.609-.777.852.152 2.905.93 2.054-.35 2.677-.746 5.415-.396 2.723-.35 3.848-.853 6.206-.518 2.357 3.808 8.274 4.89 11.483 1.082 3.194 2.605.837 1.676-1.551-.93-2.403 1.63-.685.228-2.784-1.401-2.114 1.98-2.51.655-3.787-1.325-1.262-1.02-3.909-.64-3.042.381.882.976-.289.199-1.262-.777-.974-.914.258-1.052-.7-.137-.958 1.387-.213.061-1.308-1.34-1.11-1.05.882-2.528-4.29-1.463-5.17.38-.38 1.173-1.155.792-.76 2.3-3.468 4.341-1.886 2.057 1.582.686-4.594 3.17-7.316 2.482-2.723 3.214-.487 1.614-2.784-1.6-2.296-1.98-.471-1.98-.471s-2.788-.973-3.718-2.13c-.929-1.155-1.218-.456.198-1.125 1.402-.67 2.85-1.095 1.98-3.787-.868-2.692-1.294.882-1.553-1.14-.26-2.024 1.798.592 2.194.349.38-.243.106-2.145 1.401-1.612 1.28.517.488 1.703 1.844.532 1.355-1.186 2.864.548.929-1.293-1.935-1.84-1.051-2.479-.64-3.27.396-.79.183-.73.076-1.14-.122-.411-.579-1.111-2.742-1.856-2.057-.7-.35.137-1.386.76-.93.563 2.91 3.194.853 2.708-2.072-.502-1.813-2.617-6.414-2.966-4.616-.35-7.784-1.11-10.008-.441-2.21.669-3.794.669-2.118 2.023 1.69 1.353 2.62.866 2.026 1.992-.579 1.11-3.915-1.217-3.9-1.506.015-.289.61.563.747-.182.137-.746-.793-1.81-1.448-.791-.67 1.004.214 2.22-2.864 2.053-.243-.015-1.965 1.065-2.574 1.415-1.95 1.095-3.078-5.05-8.029-1.795-4.95 3.255-1.538.852-2.574.243-1.052-.593-1.356.41-1.935.365-.579-.03-.213-1.08-.686-.365-.472.7-.182-.776-.38-.806-.214-.03-1.783.624-.32-.547 1.462-1.172-2.499-1.385-3.245-.518-.732.867.152 2.723-.549 2.632-.7-.092-4.95-4.213-6.063-2.175-1.127 2.038 1.173.273 1.203.745.03.472-1.904 1.916-.655 1.551 1.25-.365-.426-.578.99 1.05 1.433 1.627-2.467-.335-.883 1.49 1.57 1.81-2.635-.471-2.742.883-.107 1.338-2.194-.852-2.757-.791-.564.06 1.081 3.163.944 3.68-.152.518-3.64-1.216-3.032-2.205.61-.989-.03.837-1.325-.03-1.31-.867.975-.198.305-1.278-.67-1.08-.96-.198-1.204-.41-.243-.214.716-.153-.624-1.552-1.341-1.384-2.697-.259-2.94-.259-.23.016-.778-1.414-2.133-.426-1.356.99 2.01 1.37-.762 2.586-2.788 1.217-3.763-1.11-4.555-.852-.808.259-2.849.533-3.078 1.065-.228.548 1.478 1.627.046.76-1.432-.866-.67-.851-1.523-.775-.853.076-2.331-1.065-2.438.152-.106 1.217.747 1.232.046 2.586-.7 1.368-.487 2.175-1.508 1.384-1.02-.776 1.996-8.761 1.767-9.324-.229-.563-1.356.183-1.234-.684.107-.867 1.28.73-.259-1.49-1.539-2.206-1.02.349-3.077-1.446s-2.484.533-2.544.913c-.061.41.975-.928.38 1.08-.594 2.007-.853-1.567-1.234-1.84-.38-.274-2.33 1.018-2.68.638-.351-.38 1.431-1.886-1.021-2.13-3.626-.364 1.751 5.263.578 5.507-2.59.563-1.218.35-.853.76.366.411.229 1.08-.152.989-.38-.091-.122-1.597-1.051-.943-.914.654-1.402 1.75-1.737 1.627-.335-.121.762-.365.015-.912-.746-.563-3.123 1.323-1.843 1.156 1.264-.152-4.753 3.24-3.763 3.498 1.006.259-1.828 1.156-.122 2.008 1.706.852.26-.7.137.274-.106.973 2.103.44 2.103 1.216-.016.776-.58.426-.732.943-.137.517.61.259.457.594-.152.35-.609.106-.7-.335-.092-.456.792-1.126.426-1.263-.365-.136-7.038 2.571-1.98 4.822 5.073 2.251 2.392 6.799 5.103 5.825 2.712-.973.93 3.65-1.614-.03-.701-1.004-.823-1.414-.884-1.582-.548-1.201-.7 2.92-.884-.197-.198-3.103-1.37-1.932-3.747-3.362-2.377-1.43-2.56.791-2.072.73.503-.076 1.37.457.883.806-.472.335-2.407-1.505-1.858-.09.548 1.414 3.473 1.383 3.519 2.037.046.654-3.367-.152-3.58-.76-.213-.609-1.127-3.727-1.66-3.3-.519.425.898.973.426 1.976-.488 1.004-.96.229-.457 2.008.503 1.795 1.874-1.05 1.721 2.16-.152 3.21 4.784 1.886 5.363 3.97.883 3.163 1.112.38 1.31 1.566.107.654-.746 1.871-1.6-.32-.868-2.19-4.143-2.311-3.153-.745.975 1.567.746 5.4-2.3 4.852-1.6-.289-1.25-1.003-.534-.943 1.067.092 2.91.38.427-6.008-1.02-2.616-2.209-4.167-2.422-6.266-.214-2.1-1.402-1.962-2.636-1.84-1.234.121-.548-1.72-.838-.137-.274 1.566.442 3.437-.335 4.44-.762 1.02.899 3.788 1.204 4.305.304.517 1.752.578 2.483 1.187.716.608.274 1.52-.107 1.734-.38.212-1.036-1.096-1.813-1.339-.777-.243-5.789-2.312-6.185-1.506-.396.822-2.239-2.16-2.315-.836-.046.973 4.342 3.909 1.767 4.563-.091.03.091-.32-.076-1.156-.427-1.947-4.677 2.449-5.012 1.551-.35-.882 1.34-2.281-.183-1.369-.777.472-.884 1.324-.9 1.308-.67-.517-2.117 1.156-2.741 1.278-.64.137.518.304.32.487-.198.182-.61-.38-.975.121-.35.502.7 2.723-1.6 1.72-2.316-1.005 2.453-2.191-.746-3.408-3.184-1.217-1.31 1.339-1.295 2.844.015 1.49 2.285 1.962.807 2.434-1.478.471-.64-1.567-2.91.167s-.502 3.134-3.427 1.856c-2.925-1.278-.625.912.091 1.445.716.532 1.706-.259 1.28 1.034-.427 1.293-3.641-1.202-3.596-2.692.046-1.49-3-2.981-2.559-3.3.427-.305-.396.364 3.504 1.46 3.9 1.11 2.3-4.944-1.066-6.054-3.352-1.11-1.676-.228-1.89-.091-.228.137-9.353-3.56-9.506-.867-.152 2.692-1.218-.092-1.858.502-.625.578-.137.152-.747-.244-.61-.395-.106.593-.64.35-.548-.243-.182-.897-.73-.152-.565.73-2.286 1.369-1.128 1.597 1.142.213-.823 1.126-.701 1.415.107.289-.35 2.57-1.234 2.737-.884.183-.792 1.795-.838 1.902-.046.121-.944-1.354-.685.121.259 1.476-3.321 5.004-2.392 5.233.914.213 1.904-1.339.899.258-1.006 1.597-2.3-1.947-2.148.517.152 2.464-3.87 3.833-3.2 6.252.67 2.418.305-.244 1.082.182.777.426-1.28 1.962 1.204 2.464 2.483.502 1.6-1.277 2.62-1.703 1.02-.411.67-1.187 1.706 2.053s1.127 1.52 1.432 2.053c.305.548-1.478 1.187.061 1.719s.792-.928 2.62-1.095c1.829-.152.427-3.727.716-4.183.29-.471 1.966-.258 1.478-1.17-.487-.929 2.712 1.748.046-1.659-2.666-3.407 2.041-5.612 2.102-7.97.061-2.357-.96-3.072 2.163-2.51 3.123.563.32 2.525-.822 3.864-1.143 1.323-.808.958-1.539.882-.731-.06.183 3.848.64 4.776.457.928 1.493.684 2.026 1.43.533.745 4.616-1.49 5.408-1.278.792.213.777-.806.975.67.198 1.475-6.352 1.247-5.56 2.828.792 1.582.914.624.777.99-.122.38.38 1.703-.58 1.763-.96.061-1.4-2.555-2.27-.09-.868 2.463 2.682 4.045-.32 3.938-3.016-.121-.99.548-2.178.213-1.188-.334.457-1.794-2.361.122s-2.255-.182-2.818-.335c-.564-.152-1.874 1.43-2.682 1.004-.792-.426-1.432-1.931-1.523-2.357-.076-.41 1.386-.898 1.691-1.263.305-.365-.823-.182-.838-.715-.015-.547 1.006-.745.29-1.368-.701-.624-1.98 1.292-1.554 1.81.426.517-.701-.061-.594.836.106.897.655 3.255-.077 3.985-.73.73-.502-.73-1.02-.213-.396.395.64.563.655.821 0 .092-.29.213-.61.076-1.249-.517-6.063 5.202-8.135 6.388-2.071 1.187-3.534-.654-3.062.67.473 1.308-.091.289.32.593.412.289 1.585.045 1.98.973.412.928-.197-.106 1.052 1.14 1.234 1.248.442.792.046 1.203-.396.395.213 2.022-.518 2.768-.732.745-.914 0-1.646-.076-.73-.076.107-.198-.914-.061-1.036.137-1.34-.183-1.858-.244-.534-.076-.29.061-.914.061-.61-.015-.381-.182-.975-.167-.594.015-.381.365-.67.578-.29.213-.717-.274-.915.122-.198.41.046.304.29.79.243.487.106-.35.045.685-.06 1.034.03 2.449-.274 3.27-.305.806-.046.122-.076.198-.03.06-.046.091-.137.289-.092.182-.335.243-.274.67.06.425-.214-.092.502.03.716.121-.396.03-.243.517.152.486.441.015.426.669-.015.639-.64 1.065-.167 1.232.472.167.304-.061.853-.015.548.06.076-.244 1.036-.122.96.122.929 1.354 1.66 1.49.732.137 1.158-.866 1.722-.958.563-.09 1.889.457 2.24.046.35-.41.639-.107 1.279-.928.624-.836.883-1.171.914-1.658.03-.502-.686-.867-.366-1.43.32-.562.747-.851 1.051-1.247.305-.395-.487-.167.58-.517 1.066-.35 1.401-.487 1.569-1.764.167-1.278.258-1.384.685-1.597.442-.213-.564-.015.716.137 1.28.152 1.691.654 2.377-.03.685-.685.076-.366.609-.487.533-.107.548-.198.93-.563.395-.38.106-.426 1.05-.122.945.32 1.204 1.582 2.088 2.388.898.821 0-.03.38.304.381.35.503.791 1.143 1.187.64.395.655-.228 1.234.44.594.67 1.188.99 1.493 1.187.305.198.487.122.746.456.26.335.412 1.156.396 1.476-.03.304-.594 1.49-.015 1.323.594-.167.061.06.29-.228.228-.29.304-.715.441-.943.138-.228-.106.198.061-.076.168-.29.061-.639-.335-1.263-.396-.623-.457-.973.412-1.049.883-.076.868.882 1.355.852.503-.03.838-.305.183-.791-.655-.487-2.041-1.02-2.696-1.217-.655-.198 1.478-.35.091-.79-1.386-.442-2.102-1.294-2.681-1.978-.564-.685-.945-.715-1.295-1.02-.35-.303-.274-.395-.274-.76-.015-.38-.412-.7-.046-.988.35-.305.823-.517 1.34-.411.519.106-.273.973.366 1.323.625.365.381-.821.655-.806.275.015 4.312 3.65 4.403 3.727.091.076-.244-.26.137.121.366.396.457.168 1.051 1.08.594.928-.502 1.43-.076 2.038.427.609.503.32.945 1.05.442.73.67.73 1.066.73.411 0 .29.121.472-.061.183-.167.488-.563.61-.167.122.395-.427-.472-.412.608.016 1.08 1.173-.79 1.234-.837.077-.045.366.168.244-.106s-1.112-1.369-.548-1.764c.563-.411.122.943.777.638.64-.289.411.457.533.137.122-.32.091-.395-.015-.578-.092-.197-.9.183-.229-.334.655-.517.015-.259 1.417-.365 1.386-.092 1.143-.03 1.584.38.457.41-.091.38-.122.532-.03.152-.198.67-.182.959 0 .106.213.045.441.152.214.09.397-.107.305.152-.076.258.168.35.061.867-.107.532-.076.197-.228.334-.168.137-.35-.304-.29.259.061.563.731.289.899.684.183.396-.152.913.29 1.445.456.533 1.31-.365 1.751.076.457.426.655.578 1.722.38 1.493-.288-1.189-.608.274-.669 1.097-.045 2.102 1.247 3.336.76 1.234-.501.457-.638.884-.805.426-.152.366.152.823.152.457 0 .304-.791.792-.228.487.562-.153.258-.198 1.17-.046.898.213.837.122 1.415-.092.578-.031.092-.153.806-.137.7-.594 1.096-.792 2.039-.213.943-.091 1.003-.548 1.399-.457.395-1.006.365-2.103.289-1.097-.076-.396-.213-.822-.32-.427-.106-.26-.03-.457-.015-.198.015.792-.167-.747.046-1.539.198-6.154.091-7.922-.989-1.767-1.08-1.188-.821-2.209-.608-1.02.213-.853.197-1.081.41a1.252 1.252 0 0 0-.381 1.11c.076.472.731-.014.152 1.111-.579 1.11-2.468-.426-3.458-.624-.99-.197-.426.274-1.173-.152-.746-.44-.076-1.14-1.432-1.566-1.356-.426-1.935.045-2.925-.472-.99-.502-.777-.365-1.264-.532-.488-.167-.853-.821-.03-1.49.822-.67.014-3.103-.854-3.301-.853-.198-.594.243-1.401.471-.793.228-1.737-.517-2.85.016-1.111.532-1.355-.229-3.046.273-1.706.502-4.327 1.902-5.18 1.947-.853.046-2.544-.7-3.61-.943-1.067-.243-.838 1.993-2.087 2.677-1.25.67-.594.304-1.432.882-.838.578-.183.533-.747 1.415-.579.882-.624.091-.426 1.795.198 1.703-2.362 2.494-2.925 2.844-.564.35.487-.046 0 0-.488.045-5.5 6.525-5.5 7.225 0 .7-.076.41.107 1.201.182.776.761 1.643.761 2.905 0 1.263-.03 1.612-.411 2.22-.381.61-1.524 3.362-.64 4.457.884 1.095 3.306 2.981 4.083 4.654.777 1.689 2.529 3.286 3.748 3.605 1.218.35 4.63 2.145 5.743 1.247 1.112-.897 2.849-.243 3.732-.076.884.183 1.28-.289 2.088-.775.807-.472 1.066-.396 1.92-.38.852.015 1.812 1.277 2.635 1.672.807.396 2.209.396 3.168.685.96.289 1.615 1.81 2.377 2.753.685.897-.853 3.179 1.798 5.506zm78.087-10.173c-2.416-1.028-.954-4.178-.57-4.773.37-.595 2.986 5.802.57 4.773zm-36.098 21.337c1.502-.73 1.406-1.064 2.045 1.292.64 2.357-.527.076-.75.608-.224.548.111 2.265-.049 3.026-.16.76-.383 7.874-4.489 8.3-4.105.426-1.118-5.153-1.9-7.327-.768-2.16-.448 1.292-.368-.776.08-2.067 2.811-2.083 3.083-2.721.272-.623.815-1.125 1.502-1.277.703-.122-.575-.395.926-1.125zm-111.057-19.854c-3.62-1.776-12.184-6.253-11.651-7.482.532-1.214-7.606.486-8.442-.987-.837-1.472-2.677 4.31-2.617-.03.076-4.34-1.597-1.305-2.616.668-1.004 1.973-2.038 3.885-4 2.064-1.977-1.821-7.316-.076-5.78-6.754 1.536-6.662-5.902.668-5.43-3.323.487-3.991 3.27-8.165-3.133-1.472-6.404 6.708-6.997-11.033-2.556-13.007 4.442-1.972 8.412 1.306 11.56-.333 3.164-1.64 2.586-.88 3.331-2.307.746-1.427 8.944-4.508 6.693-5.464-2.25-.956 13.081-16.178 13.02-12.732-.06 3.46 8.412 1.517 4.214-.972-4.199-2.488-3.453-1.29-2.008-4.097 1.445-2.808-9.324 3.414-2.799-1.609 6.526-5.023 11.454-3.02 12.595-5.843 1.14-2.822.106-.986-.928-1.684-1.035-.698-4.852-2.656-3.423-4.098 1.43-1.426-.517-8.939-1.977-6.298-1.46 2.64-5.445 2.307-4.365-.987 1.08-3.293-8.579-4.689-7.697-.364.882 4.34-1.384 5.054-.73 7.406.639 2.352-4.441 1.32-4.244 6.298.183 4.978-2.98.182-2.798-3.035.182-3.217 4.76 1.214-3.773-3.612-8.517-4.81 1.826-14.357 6.647-19.137 4.822-4.781 2.951-.592 5.856-2.398s.64-6.177-1.156-6.814c-1.795-.638-4.396 6.723-4.35 4.006.046-2.717 1.84-3.354.259-3.384-1.567-.046-.776 3.156-1.795 2.17-1.02-.987 1.551-12.445-2.495-6.708s3.681 1.609-.73 5.903c-4.41 4.295-1.11 1.305-2.6.38-1.491-.941-5.142.106-7.15-1.518-2.007-1.609.38-3.84-2.966-2.322-3.33 1.533 1.886.288.7 1.563-1.186 1.26-1.369 1.214-1.551 2.975-.198 1.775-1.37-2.671-1.385-2.732-.015-.06-6.692-1.685-3.407-1.988.38-.03-6.83-8.893-8.685-9.622-6.89-2.686-2.966 7.33-16.686-3.506-13.72-10.836-9.126-4.446-12.716-5.069-3.59-.607-10.89 4.371-8.046 8.53 2.844 4.143 2.464 2.397.684 2.625-1.764.228-4.015-2.534-4.32-.895-.304 1.639-2.707-.274-3.27.85-.547 1.122 3.468 1.593.517 1.73-2.935.136.03 1.972 1.096 2.412 2.038.85 6.92-5.372 2.98 1.275-7.756 13.037 3.134 14.645 5.096 13.613 1.963-1.016 3.575-2.929 5.324.137 1.75 3.05 3.483.546 3.91 2.792.41 2.231 2.418 4.811 1.992 7.042-.441 2.216 9.613 21.596 6.418 19.183-3.194-2.413-1.369-.38-2.068 1.518-.685 1.882-4.518 15.525 2.144 20.245 6.662 4.735.822-2.14 4.746 3.672 3.94 5.828 11.21 19.699 18.298 19.41 7.073-.288 10.191 5.373 10.04 6.679-.153 1.305 6.144 6.025 5.961 2.762-.182-3.263 6.16 4.431 2.57 6.358-3.574 1.913-2.722 6.693-2.463 6.056.258-.638-1.597 2.898-1.293 4.006.304 1.123 8.153 10.942 12.67 14.053 4.518 3.127-2.875 25.694 1.156 30.14 4.016 4.447.913 11.716.487 13.234-.41 1.533 3.149 3.703 2.95 3.946-.227.243.913 3.11 2.054-.319.837-2.52 4.868-6.936 1.886-9.485-2.662-2.277 3.56-7.345 1.643-6.693-1.932.653-.867-1.138-.989-1.457-.121-.319 3.088-1.366 2.83-2.777-.26-1.412 8.107-3.278 4.335-5.98-3.757-2.701 2.205.516 4.197-1.79 1.993-2.323 5.81-14.373 10.45-13.78 4.624.591 3.088-8.47 5.233-12.218 2.144-3.763 1.84-8.893-2.267-10.669-4.107-1.79-4.624.972-5.384.243-.745-.728-7.94-2.58-7.986-2.58 0 .03 3.803-3.84.183-5.615v.002zm192.774 8.44c.322.062.257-.393-.32-.565-.595-.173-1.013 4.736-1.928 3.293-.9-1.443-.065-.063.176-1.443.241-1.364-.995 1.13-.369-2.885s.45-3.858 3.582-3.466c3.132.392 2.521-1.24 3.565-.69 1.028.564.659 2.195-2.329 1.442-2.987-.752-3.646 2.259-2.602 2.165 1.044-.11-1.14-.534.354-.737 1.494-.204 2.056.423.337 1.317-1.735.894 1.317 2.43 1.526 2.525.209.094-1.462 1.05-1.863.44-.402-.613-.113-.158-.225-.346-.129-.172-.225-1.098.096-1.05zm-8.935 1.323c-.878-.06-.278-.426-1.96-1.216s-3.57-5.96-2.019-5.382c1.55.562 1.2-.259 1.785-1.004s4.505-3.451 5.237-4.972c.731-1.52.307.67 1.609 1.126 1.302.456.205.684.307 1.474.117.791-.687.152-.805.304-.131.153-.526 1.475.235 2.828.76 1.354-.644 2.388-1.522 5.322-.892 2.935-1.01.38-1.273.639-.263.243.44 2.584-.6 1.049-1.038-1.566-.102-.107-.994-.168zm11.237 6.777c-.455-1.4 3.948-2.324 3.907-2.124-.042.2-3.451 3.524-3.907 2.124zm30.506-5.4c.535-.354.52.354 1.196-.17.676-.523.786-2.554 1.667-.815.881 1.739-5.27 2.585-4.814 1.415.44-1.138 1.416-.061 1.95-.43zm-13.768 48.646c-.09.453 0 6.856 1.036 5.676 1.051-1.18 3.48-3.93 2.74-5.094-.741-1.164-1.526.437-1.985.42-.459-.032-1.703-1.455-1.791-1.002zm-36.47-46.658c.105-1.616 4.37.046 5.555-.016 1.17-.061-1.422-.846.252-.6 1.688.23.222.908 3.421 1.631 3.214.724.652.678.415.955-.222.277-9.746-.37-9.642-1.97zm69.779 42.472c1.307 5.056-.938 3.938-1.634 5.198-.71 1.276.867 1.103.98 1.717.114.583-2.145 3.513-.483 3.04 1.677-.488 2.586-4.158 3.253-4.394.654-.236 1.563-1.15 1.932-2.52.384-1.37-1.832.299-2.272-.3-.44-.598-1.18-2.52-.881-3.591.27-1.056-2.216-4.222-.895.85zm-2.18 10.3c-.916 2.204-1.76 1.454-2.501 2.433-.742.98 1.585.704.072.964-1.498.245-4.087 7.025-6.472 4.683-2.385-2.341 3.113-4.407 5.716-8.264 2.603-3.856 1.716-1.178 2.37-1.117.67.046 1.746-.888.815 1.3v.001zm-27.261-58.406c2.08.597 5.009 2.164 5.41 3.164.4.986 3.344.866 1.834 1.478-1.51.612 1.464 2.508 1.942 2.627.478.12-.432.418-.077.612.354.194 2.327-.537 1.618.716-.709 1.254-5.302-2.253-6.874-3.224-1.572-.97-.555.433-1.248.806-.71.374.57-.134-.14 1.045-.739 1.164-1.463-1.239-3.976-1.06-2.496.195-.57-.03-1.34-1.671-.771-1.642-4.47-3.329-5.18-3.463-.708-.134-.184 1.567-1.556-.269-1.372-1.85 2.559.06 1.495-1.298-1.063-1.343-1.526.254-2.096.03-.57-.224.956.388-.354-.717-1.295-1.12 2.928-.925 2.774.224-.139 1.164.4 2.358 2.312.836 1.896-1.552 3.375-.448 5.456.164zm-42.204 4.149c-2.474-1.712-5.686-9.698-8.748-11.455-3.061-1.758.498-2.22 1.961-.385 1.463 1.834 3.876 2.204 3.951 2.99.076.787 2.308 1.465 2.263 1.943-.06.493.316.833.769 1.418.452.586-.935.648.392 1.403 1.327.756 1.538 3.716 1.01 3.947-.513.231.86 1.85-1.598.139zm35.155 10.542c.106.668 2.58 2.535 4.446 3.476 1.867.926 2.945-10.216 4.113-7.225 1.169 2.99-.167 2.61 1.533 2.93 1.7.318.38 5.707 2.261 6.588 1.867.88 1.518 3.749 2.55 3.9 1.047.153-2.868-4.189.926 1.61 3.809 5.799-3.248 12.812-4.66 19.294-1.41 6.497-2.185 1.882-3.414 2.823-1.23.926-2.808 1.867-2.443.395.379-1.473-.395.136-.516-.122-.122-.258-1.26.091-.395-.394.865-.486-7.087-9.761-9.485-9.928-2.413-.167-5.949-1.002-7.163-.714-1.2.289-2.641-.804-4.068.972-1.426 1.776-2.898-.228-5.19 1.442-2.276 1.685-5.797-.273-4.674-1.032 1.123-.76.076-8.911.486-9.685.425-.774-1.396-1.26-.319-3.294 1.062-2.02 3.718-4.478 7.27-4.949 3.55-.455 3.733-5.404 4.294-4.22.547 1.2.365.501.653-.334.288-.835.82.456 1.169.334.349-.121-.501-1.108.258-1.336.758-.212 2.655-2.413 3.581-1.093.926 1.321.896.41 1.199.38.319-.03.334.987.516-.698.182-1.67 3.566-1.943 3.96-2.642.395-.698-3.338-2.004-.105-.88 3.247 1.123 3.096 1.154 4.264.713 1.214-.425-1.153 3.036-1.047 3.69zM140.94 24.395c-2.643.774-13.472 29.596-20.268 29.126-6.81-.47-3.126 5.843-4.198 7.164-1.072 1.335-.317 1.867-.891 2.747-.574.88-.468-4.19-2.432-2.155-1.963 2.033-1.39-5.555-3.066-5.89-1.691-.333 1.194-15.739.091-15.541-1.102.197.272-2.854.287-2.9.891-5.858-4.53-11.018-4.546-11.003-1.314.501-3.413-6.253-3.79-7.33-.378-1.063 7.34-1.685 8.034-3.78.695-2.094-.83-1.26 1.42-3.627 2.25-2.368 1.208.576 1.238.318.045-.243 3.066-3.582 3.292-3.597.212-.015.906 2.884.68.213-.242-2.672 3.896-2.247 4.44-1.29.543.956-2.19 5.54-.71 3.43s1.344-.44 1.948-.456c.604-.015 1.888-1.578 3.655-3.035s.65 1.153 1.48.561.196-1.775.695-2.413c.498-.637 1.842-.91 2.567.622.74 1.518 1.782-1.851 2.401-1.988.62-.152 5.951-.455 6.162 1.366.212 1.821-4.968.456-4.712 1.852.257 1.381 1.526-.425 1.903-.516.393-.091 6.388.182 3.972 1.123-2.416.941 0-.713 2.084.956 2.07 1.655-5.92 1.063-7.37 2.671-1.45 1.61 4.29-1.29 4.41.274.12 1.563-.045 1.745.302 1.502.348-.258 1.873-3.066 2.235-1.35.378 1.714-5.195 5.266-4.183 5.22 1.012-.045 4.682-3.202 5.014-3.657.332-.455 1.042-.38 1.45-.44.408-.076 4.365.637 3.82 1.851-.528 1.2-6.387 3.75-6.312 4.296.076.546 3.595-1.548 1.284 1.23-2.31 2.792.257 3.672-2.386 4.446zM83.774 13.619c1.8-1.6-.216-3.663 1.677-1.016 1.893 2.663-3.478 2.617-1.677 1.016zm-5.885 3.883c4.117-1.69 2.836 5.464-.85 4.591-3.668-.873.882-1.127-.047-1.873-.913-.732-3.22-1.028.897-2.718zm2.606-8.511c.277-2.47 3.632-2.14 3.232 1.431-.4 3.587.077 5.003-2.201 2.848-2.293-2.155-.123-1.353-.185-3.603-.077-2.265-1.139 1.794-.846-.676zM77.05 52.115c1.864-6.062-.367-4.539 2.302-2.758 2.67 1.796 2.542 5.131.876 3.56-1.68-1.572-5.042 5.26-3.178-.802zm-16.689-38.52c1.676-1.502 9.955-5.604 6.399-1.418-3.557 4.186-.802.153-3.367 2.058-2.58 1.92-4.723.862-3.032-.64zm35.626 69.121c-.648-1.34-1.612 1.399.648-.83 2.26-2.23 3.81-1.589 6.307-1.268 2.482.335.19 2.666-.158 3.439-.364.757-1.28-1.37-1.28-1.37-.016-.015-4.869 1.37-5.517.029zM74.593 26.387c3.178-1.442 1.517 3.116 1.15 3.892-.367.775.431 3.333-2.507 2.589-2.938-.744-3.545-5.535-1.214-4.79 2.332.743-.607-.249 2.571-1.69zM64.44 15.613c-1.118-2.232 4.875-1.55 3.327 1.334-1.549 2.868 1.362 1.116 1.979-1.148.63-2.248.501 1.35 1.577 2.093 1.075.745-1.577 3.396-1.62 3.287-.043-.093-6.61.016-4.144-1.333 2.452-1.349-.832.201-1.678-1.1-.86-1.334 1.678-.9.56-3.133zm19.324 4.583c-1.555-7.18 2.386.962 1.894 1.185-2.633 1.214 8.313 3.301 6.374 4.649-1.94 1.347-.801 1.318-5.265.444-4.45-.874-2.448-3.687-3.003-6.278zm-28.705.626c.485-3.398 7.168-.639 5.384 1.191-1.8 1.815-9.484 7.262-9.547 4.125-.078-3.123 3.678-1.903 4.163-5.316zm35.657-14.75c1.041-1.85.664-2.377 1.916-2.602 1.252-.241.77 2.181 1.192 3.942.407 1.775.558-.015 1.282.406.725.406-2.353 2.813-1.04 2.889 1.312.075-3.682 6.59-5.885 3.926-2.202-2.678.544-6.635 1.117-6.996.588-.36.377.286 1.418-1.565zM56.067 26.457c1.826-1.4-.46-.062 3.444-1.876 3.905-1.799 2.004 2.445 3.355 2.752 1.336.308.268 2.507.98 2.953.698.446 5.567-7.273 3.103-.8-1.589 4.152-3.548 6.427-2.079 7.335 1.47.907-1.202 1.752-3.043.4-1.826-1.354-5.493 2.06-8.224-2.615-2.732-4.69 2.954-2.537 3.622-3.167.668-.646-2.984-3.583-1.158-4.982zm23.43 8.695c-.464-1.308 3.453-6.267 5.994-6.084 2.54.182-1.72 2.616-1.72 6.784 0 4.168.42-1.582 1.047-2.053.628-.472.493-1.932 1.24-2.07.733-.136 5.053-1.444 2.87 1.522-2.182 2.966 3.11 3.65 5.785 3.742 2.661.091-1.315 3.194.434 2.373 1.764-.807.015-.411 1.001.03.987.441 5.277 7.301 3.618 11.56-1.66 4.26-2.69-3.483-4.365-1.49-1.674 1.992-1.33-1.902.374 4.274 1.704 6.175-4.275-1.02-2.168 3.544 2.108 4.563-5.456-4.092-5.695-4.183-.239-.106-.075-1.247-1.465-.608-1.405.639-2.182-1.476-1.046-2.069 1.136-.608.732 2.008 2.033.73 1.285-1.277 3.124-7.453 3.109-8.168-.03-.7-1.196 1.384-1.614.548-.404-.837.852-2.8 0-3.894-.852-1.08.134-1.004-.778-1.4-.912-.395-.433 2.373-1.704 1.75-1.285-.609-8.042-.913-6.786-3.195 1.226-2.312.3-.32-.164-1.643zM104.86 1.453c.42-.521.195.276.045-.368-.165-.644 1.606-.384 1.816-.215.21.154-.405.997.03 1.105.42.107 1.141-2.317 2.552-1.166 1.41 1.135-.75 1.426.27.89 1.02-.553.39.398 1.336.015.946-.384-.78-.184 1.35.445 2.117.613-.45.736.421 1.565.87.813 1.366-.522 2.071.06.706.584.826-1.15 1.051-.153.24 1.013 2.807 2.961-.915 4.004-3.723 1.043-18.057 10.002-18.192 12.824-.136 2.823-2.672 5.078-3.543 2.639-.87-2.44-2.116.522-4.938-.874-2.807-1.396 2.011-.415 2.281-2.5.255-2.087 4.653-.032.51-2.823-4.142-2.792 3.858-1.044 4.639-1.243.795-.2-1.306-1.105-.75-1.703.554-.598.45-.107.54-2.9.09-2.791 3.242 1.642 2.941.584-.3-1.059.51-2.562 1.216-3.759.706-1.211-2.596.369-3.842.139-1.246-.23-.63-2.301-.24-3.053.375-.752-.646-.015.105-.706.75-.69.03.261-.54-.153-.556-.414 1.26-1.427 1.875-1.504.616-.076 2.462-.092 2.567-.521.09-.43.6.2.84.03.24-.168-.87-.444.09-.843.961-.399.796 1.09 1.802.567.99-.536.075-.997.84-.46.766.537.09-.537.706-.843.585-.292.63 1.442 1.066.92zM308.643 92.99c.506 2.27.432 3.722-.49 3.83-.908.108.55-1.791-.328-.85-.877.943-.595.51-.937.727-.342.216-.03 1.05-1.19.71-1.16-.34-.193-.71-.981 1.174-.773 1.884-.238-.386-1.205-1.143-.981-.772.164 2.224-.743 2.147-.907-.077.03 1.174-1.19.88-1.22-.293 1.145-2.007.848-2.563-.298-.556-1.145 1.003-2.038 1.003-.907 0 .134-.355-.089 2.363-.208 2.703-.535 1.329-.744 1.205-.223-.123-.401 1.406-.773-.51-.357-1.915-1.561-1.59.565-3.845 2.142-2.255 4.016-1.251 4.417-3.027.402-1.777.878-1.746 1.621-1.437.744.31.357.247.878-1.637.52-1.884-.253-1.93-.268-3.336 0-1.405.208-1.622.744-1.59.55.03-1.1-4.14.758-.17 1.86 3.938.64 3.799 1.145 6.07v-.001zm-94.162-60.14c.57-1.324-.508-.77.831-.355 1.34.416-1.416 1.678-.83.354zm76.002 83.211c-1.155 1.267-1.432.812-1.093-2.175.339-2.987 2.247.909 1.093 2.175zm.453 7.261c-.077-.431-1.724-1.713.338-2.548 2.062-.849.97 3.455 1.478 4.636.507 1.166-1.17 1.598-1.185.633 0-.964-.216-.029-.785-1.353-.554-1.339.246-.936.154-1.368zM219.4 8.767c.616 3.957 4.525-.58 3.37-2.073-1.138-1.491.462-.91-.123-1.114-.6-.22-3.862-.77-3.247 3.187zm10.077 1.424c-.981-1.836.675.015 1.27-.398.66-.442 5.534.583 2.188 2.719-3.314 2.121-2.461-.498-3.458-2.32zm77.42 73.54c.202-.322.341-.322-.186-2.61-.526-2.289 1.767.822 3.379.806 1.612 0 .713.29 1.286.983.574.677.543-1.193.527-.145 0 1.064-1.596 1.273-1.69 1.096-.092-.177-.077 2.305-1.518 1.257-1.441-1.048-3.006-.564-1.782.338 1.224.887.232 2.95-.62.71-.852-2.208.403-2.112.604-2.434zM223.98 9.512c-.51-1.103-1.293.13-.048-1.022 1.244-1.153 1.117.146 2.441.747 1.292.6-.527-.974.016-1.721.526-.747 2.68 2.16 2.361 2.646-.319.471 3.845 2.809-.813 1.98-4.675-.86-3.447-1.541-3.957-2.63zM200.428 36.45c-.54-.874 2.456-.46 2.538.266.213 1.63 3.586 5.333 2.26 4.963-1.327-.385-3.374 1.096-2.866-.815.377-1.422-1.507-.252-2.358-.637-.295-.133-.311-.4-.295-.903.082-2.09.475-.563 0-2.193-.475-1.644 1.261.178.72-.681zm66.344-27.858c.685-.927.73 1.398 3.994 2.422 1.982.622-.403-.222-1.58.609-1.177.83.566.36-1.028 1.536-1.595 1.19-6.677-5.425-3.473-4.401 3.204 1.01 1.297.9 2.087-.166zm33.593 53.8c-.258-.247-.606-1.455.393-.402 1 1.068-.106.356 3.076 5.698 3.182 5.342 2.545 3.453 1.394 4.243-1.151.79 1.015 2.802 2.015 3.654 1 .867.985 1.58-.152 1.44-1.12-.14-.333 1.208-.954 1.27-.606.061-.606.015-.712-1.673-.106-1.687-4.985-11.504-4.803-12.464.182-.945-.015-1.518-.257-1.765zm-96.27-36.145c.518-.753.8-.487 1.647-.974.83-.488 2.053-4.387 3.416-2.673 1.348 1.713-1.943 3.53-3.902 6.38-1.96 2.85-.69 2.717-1.003 3.455-.314.754-1.52-.546-.972.074.548.606.627 1.507-.502 1.477-1.128-.03-1.74.177-.909-.768.847-.945-1.88.753-1.128-.531.752-1.285.924-.192 1.316-.503.392-.31-1.285-.679-.642-.96.266-.132.062-.384-.079-.605-.674-1.182-.266-.798.047-1.137.314-.355.314-.768.69-1.448.376-.679 1.505-1.048 2.022-1.787zm-3.622 65.28c.108.628-.308 1.023-.94 1.286-.631.263-.8-.146-1.988.102-1.17.249-3.482-1.315-4.206-1.315-.74 0-1.064-.073-2.343.292s-.94.73-1.68 1.038c-.739.307-.616-.146-1.093-.146-.478 0-1.11-.468-1.156.102-.03.57.339.234.678.57.354.336-.632.058-.786.19-.154.132.432.307.092.395-.339.073-1.155-.015-1.695-.03-.554-.014-.708-.058-.185-.409.509-.35.37-.482 1.002-.497.647-.014.601.366.801-.058.2-.41-.2-.263-.631-.526-.432-.249-.37-.249-.54-.717-.17-.467-.693.117-.477-.687.215-.789.292-.804.924-1.315.632-.512.062.19.077-.863.016-1.052.879-.789.91-1.607.046-.819-.694.073-.031-.41.647-.497.986-1.49 1.926-1.593.955-.088.447.044.77.073.34.03-.431.22-.524.263-.092.059-.416-.102-.092.059.308.146.555.54 2.05.409 1.494-.131.616-.102 1.571-.512.94-.409 1.033-.146 1.834-.745.801-.6 1.34-.833 2.219-.512.894.322-.4.439-.678.673-.262.234-.046.044-.062.058-.015.015.031 0-.061.059-.093.058-.632-.073-.54.336.108.395.74-.073.586.526-.17.585-.54.629-.586 1.023-.061.395-.354-.014-.431-.014-.077 0-.062 0-.093.014-.046.015-.154-.219-.17.03-.015.248-.646.394.848.964 1.495.57 1.695 1.096 3.606 2.047 1.942.95.971.818 1.094 1.447zm-50.48-15.796c.327 2.08.163 2.21-1.68 3.21-1.844 1-3.23-.42-2.774-.58.473-.162.359-.63.506-1.082.147-.451.049-.758.016-.92-.033-.177.506-.419.506-.596 0-.161-1.42-.371-.261-.823 1.175-.452-1.501-2.049 2.937-1.403 4.47.661.424.129.75 2.194zm20.254 21.818c.416-.6.939.016 1.57-.061.63-.062 1.185-.754 1.57-.323.384.43-.2.446-.293.97-.077.538.524.692 0 1.138-.538.446-1.17-.477-1.57-.677-.4-.185-.353-.23-.8-.431-.446-.2-.908-.015-.477-.616zm-4.958-3.8c-.354-.984.077-.046.108-.06.03-.016.015 0 .092-.062.093-.062.262-.2.431-.293.17-.092.293-.43.724-.123.43.292.215.677.246 1.185.03.508.061 1.139.015 1.431-.03.293.416-.2-.108.046-.523.247-.077.847-.877.478-.8-.385-.277-1.616-.63-2.601zm25.475-6.584c.074-.415.415-.415.711-.692.296-.262.045-.077.133-.139.09-.077-.088-.169.356-.138.43.03.68.862 1.2.985.517.123 1.376-.739 1.495-.154.133.6-.045.308-.8.462-.755.138-1.584 1.354-2.236.846-.651-.493.178-.677-.148-.939-.296-.261-.77.185-.71-.23zm-39.447-13.598c-.195-.423-2.097-5.423.134-5.987 2.231-.564.42 1.317.899 1.615.479.297 1.497-.455 1.827-.047.329.423-2.456 2.805-1.198 2.648 1.257-.157 3.294 5.062 3.953 5 .658-.063 2.126-.533.763 1.253-1.362 1.771 2.995.408-2.246 2.132-5.24 1.708-4.507 1.081-3.908.266.614-.815.165-.25 1.722-.94s-3.13-.549-1.617-1.458c1.527-.909 1.991-3.071 1.557-3.322-.434-.25.06-1.254-.314-1.332-.33-.079-1.378.595-1.573.172z" fill="#FFF" fill-rule="evenodd" opacity=".1"/></svg>