<svg width="264" height="218" viewBox="0 0 264 218" xmlns="http://www.w3.org/2000/svg"><title>bg-quote</title><path d="M0 0c8.787 32.896 12.34 65.225 10.433 97h31.334C51.854 68.529 54.525 35.725 52.235 0H0zm65 0c10.3 33.547 12.63 65.689 10.242 97h30.76c11.447-30.306 14.292-62.777 10.277-97H65zm89.468 121c1.907 31.761-1.681 64.116-10.468 97h52.231c2.29-35.713-.346-68.54-10.432-97h-31.331zm66.773 0c2.387 31.313.058 63.464-10.241 97h51.272c4.015-34.199 1.206-66.705-10.24-97H221.24z" fill="#FFF" fill-rule="evenodd" opacity=".1"/></svg>