<svg xmlns="http://www.w3.org/2000/svg" viewBox="0 0 100 100">
  <path fill="#fff" d="M91.92 25v-.06a1.49 1.49 0 00-.28-.46 1.5 1.5 0 00-.44-.32 1.49 1.49 0 00-.51-.12H9.4a1.49 1.49 0 00-.51.12 1.5 1.5 0 00-.44.32 1.49 1.49 0 00-.35.52v.06a1.48 1.48 0 00-.1.44v52A1.5 1.5 0 009.5 79h81a1.5 1.5 0 001.5-1.5v-52a1.48 1.48 0 00-.08-.5zM89 73.6L64.26 51.51 89 28.9zM11 28.9l24 21.94-24 22.23zm50 21.48a1.42 1.42 0 00-.16.12v.06L50 60.47 13.37 27h73.26zm-23.77 2.49L49 63.61a1.5 1.5 0 002 0l11-10.07L87.19 76H12.25z"/>
</svg>