<svg xmlns="http://www.w3.org/2000/svg" viewBox="0 0 595.28 841.89">
  <g fill="#fff">
    <path d="M421.657 346.535c0-68.379-55.638-124.017-124.017-124.017s-124.017 55.639-124.017 124.017 55.639 124.017 124.017 124.017 124.017-55.638 124.017-124.017zm-223.23 0c0-54.705 44.496-99.213 99.213-99.213s99.213 44.508 99.213 99.213-44.495 99.213-99.213 99.213-99.213-44.508-99.213-99.213z"/>
    <path d="M386.046 573.56l68.796-68.565c42.581-42.266 66.028-98.534 66.028-158.46 0-123.085-100.134-223.23-223.23-223.23S74.41 223.45 74.41 346.535c0 59.926 23.447 116.194 66.03 158.436l68.807 68.59c-60.937 5.391-184.444 22.267-184.444 70.614 0 51.121 141.432 74.41 272.837 74.41s272.837-23.289 272.837-74.41c0-48.344-123.49-65.22-184.431-70.615zm-228.119-86.174c-37.86-37.569-58.714-87.586-58.714-140.851 0-109.411 89.016-198.427 198.427-198.427s198.427 89.016 198.427 198.427c0 53.265-20.856 103.282-58.714 140.876L297.64 626.663 157.927 487.386zM297.64 693.782c-160.495 0-248.033-32.773-248.033-49.607 0-12.392 55.381-39.591 182.816-47.513l56.474 56.293a12.306 12.306 0 008.744 3.622 12.3 12.3 0 008.744-3.622l56.481-56.292c127.429 7.924 182.808 35.12 182.808 47.512-.001 16.834-87.539 49.607-248.034 49.607z"/>
  </g>
</svg>